<svg width="31" height="35" viewBox="0 0 31 35" fill="none" xmlns="http://www.w3.org/2000/svg">
<path d="M26.1778 17.9691V14.6973C26.1778 9.92428 22.9806 5.87884 18.6 4.55752V3.07617C18.6 1.37997 17.2094 0 15.5 0C13.7907 0 12.4 1.37997 12.4 3.07617V4.55752C8.01941 5.87884 4.82229 9.92421 4.82229 14.6973V17.9691C4.82229 22.1617 3.21181 26.1372 0.287553 29.1633C0.000976066 29.4599 -0.0795549 29.8975 0.0828846 30.2753C0.245324 30.6532 0.61939 30.8984 1.03341 30.8984H10.4373C10.9174 33.2358 13.005 35 15.5 35C17.9952 35 20.0826 33.2358 20.5627 30.8984H29.9667C30.3807 30.8984 30.7547 30.6532 30.9171 30.2753C31.0796 29.8975 30.999 29.4599 30.7125 29.1633C27.7883 26.1372 26.1778 22.1616 26.1778 17.9691ZM14.4667 3.07617C14.4667 2.51077 14.9303 2.05078 15.5 2.05078C16.0698 2.05078 16.5334 2.51077 16.5334 3.07617V4.15133C16.1933 4.11879 15.8486 4.10156 15.5 4.10156C15.1515 4.10156 14.8068 4.11879 14.4667 4.15133V3.07617ZM15.5 32.9492C14.1529 32.9492 13.0043 32.0919 12.5778 30.8984H18.4223C17.9957 32.0919 16.8472 32.9492 15.5 32.9492ZM3.26058 28.8477C5.61389 25.7173 6.88895 21.9291 6.88895 17.9691V14.6973C6.88895 9.9856 10.7519 6.15234 15.5 6.15234C20.2482 6.15234 24.1111 9.9856 24.1111 14.6973V17.9691C24.1111 21.9291 25.3862 25.7173 27.7396 28.8477H3.26058Z" fill="white"/>
<path d="M28.9333 14.6973C28.9333 15.2636 29.396 15.7227 29.9667 15.7227C30.5373 15.7227 31 15.2636 31 14.6973C31 10.5889 29.3877 6.72636 26.4602 3.82129C26.0567 3.42091 25.4024 3.42084 24.9988 3.82129C24.5953 4.22174 24.5953 4.87095 24.9988 5.2714C27.5361 7.78914 28.9333 11.1366 28.9333 14.6973Z" fill="white"/>
<path d="M1.03341 15.7227C1.60408 15.7227 2.06674 15.2636 2.06674 14.6973C2.06674 11.1367 3.46408 7.78921 6.00125 5.27146C6.4048 4.87102 6.4048 4.22181 6.00125 3.82136C5.59777 3.42091 4.94346 3.42091 4.53991 3.82136C1.61235 6.72643 8.04112e-05 10.5889 8.04112e-05 14.6973C8.04112e-05 15.2636 0.462737 15.7227 1.03341 15.7227Z" fill="white"/>
</svg>
